<svg width="20" height="22" viewBox="0 0 20 22" fill="none" xmlns="http://www.w3.org/2000/svg">
<g clip-path="url(#clip0_549_4242)">
<path d="M3.53999 18.5201C2.92999 18.5201 2.35999 18.31 1.94999 17.92C1.42999 17.43 1.17999 16.69 1.26999 15.89L1.63999 12.65C1.70999 12.04 2.07999 11.23 2.50999 10.79L10.72 2.10005C12.77 -0.0699512 14.91 -0.129951 17.08 1.92005C19.25 3.97005 19.31 6.11005 17.26 8.28005L9.04999 16.97C8.62999 17.42 7.84999 17.84 7.23999 17.9401L4.01999 18.49C3.84999 18.5 3.69999 18.5201 3.53999 18.5201ZM13.93 1.91005C13.16 1.91005 12.49 2.39005 11.81 3.11005L3.59999 11.8101C3.39999 12.0201 3.16999 12.5201 3.12999 12.8101L2.75999 16.05C2.71999 16.38 2.79999 16.65 2.97999 16.82C3.15999 16.99 3.42999 17.05 3.75999 17L6.97999 16.4501C7.26999 16.4001 7.74999 16.14 7.94999 15.93L16.16 7.24005C17.4 5.92005 17.85 4.70005 16.04 3.00005C15.24 2.23005 14.55 1.91005 13.93 1.91005Z" fill="#7E92A2"/>
<path d="M15.3399 9.95009C15.3199 9.95009 15.2899 9.95009 15.2699 9.95009C12.1499 9.64009 9.63995 7.27009 9.15995 4.17009C9.09995 3.76009 9.37995 3.38009 9.78995 3.31009C10.1999 3.25009 10.5799 3.53009 10.6499 3.94009C11.0299 6.36009 12.9899 8.22009 15.4299 8.46009C15.8399 8.50009 16.1399 8.87009 16.0999 9.28009C16.0499 9.66009 15.7199 9.95009 15.3399 9.95009Z" fill="#7E92A2"/>
<path d="M19 21.75H1C0.59 21.75 0.25 21.41 0.25 21C0.25 20.59 0.59 20.25 1 20.25H19C19.41 20.25 19.75 20.59 19.75 21C19.75 21.41 19.41 21.75 19 21.75Z" fill="#7E92A2"/>
</g>
<defs>
<clipPath id="clip0_549_4242">
<rect width="20" height="22" fill="white"/>
</clipPath>
</defs>
</svg>
