<svg width="20" height="20" viewBox="0 0 20 20" fill="none" xmlns="http://www.w3.org/2000/svg">
<path d="M7.63304 9.68329C7.60804 9.68329 7.59137 9.68329 7.56637 9.68329C7.52471 9.67496 7.46637 9.67496 7.41637 9.68329C4.99971 9.60829 3.17471 7.70829 3.17471 5.36663C3.17471 2.98329 5.11637 1.04163 7.49971 1.04163C9.88304 1.04163 11.8247 2.98329 11.8247 5.36663C11.8164 7.70829 9.98304 9.60829 7.65804 9.68329C7.64971 9.68329 7.64137 9.68329 7.63304 9.68329ZM7.49971 2.29163C5.80804 2.29163 4.42471 3.67496 4.42471 5.36663C4.42471 7.03329 5.72471 8.37496 7.38304 8.43329C7.43304 8.42496 7.54137 8.42496 7.64971 8.43329C9.28304 8.35829 10.5664 7.01663 10.5747 5.36663C10.5747 3.67496 9.19137 2.29163 7.49971 2.29163Z" fill="#7E92A2"/>
<path d="M13.783 9.79159C13.758 9.79159 13.733 9.79159 13.708 9.78325C13.3664 9.81659 13.0164 9.57492 12.983 9.23325C12.9497 8.89159 13.158 8.58325 13.4997 8.54159C13.5997 8.53325 13.708 8.53325 13.7997 8.53325C15.0164 8.46659 15.9664 7.46659 15.9664 6.24159C15.9664 4.97492 14.9414 3.94992 13.6747 3.94992C13.333 3.95825 13.0497 3.67492 13.0497 3.33325C13.0497 2.99159 13.333 2.70825 13.6747 2.70825C15.6247 2.70825 17.2164 4.29992 17.2164 6.24992C17.2164 8.16659 15.7164 9.71659 13.808 9.79159C13.7997 9.79159 13.7914 9.79159 13.783 9.79159Z" fill="#7E92A2"/>
<path d="M7.64137 18.7916C6.00804 18.7916 4.36637 18.375 3.12471 17.5416C1.96637 16.775 1.33304 15.725 1.33304 14.5833C1.33304 13.4416 1.96637 12.3833 3.12471 11.6083C5.62471 9.94992 9.67471 9.94992 12.158 11.6083C13.308 12.375 13.9497 13.425 13.9497 14.5666C13.9497 15.7083 13.3164 16.7666 12.158 17.5416C10.908 18.375 9.27471 18.7916 7.64137 18.7916ZM3.81637 12.6583C3.01637 13.1916 2.58304 13.875 2.58304 14.5916C2.58304 15.3 3.02471 15.9833 3.81637 16.5083C5.89137 17.9 9.39137 17.9 11.4664 16.5083C12.2664 15.975 12.6997 15.2916 12.6997 14.575C12.6997 13.8666 12.258 13.1833 11.4664 12.6583C9.39137 11.275 5.89137 11.275 3.81637 12.6583Z" fill="#7E92A2"/>
<path d="M15.283 17.2916C14.9914 17.2916 14.733 17.0916 14.6747 16.7916C14.608 16.45 14.8247 16.125 15.158 16.05C15.683 15.9416 16.1664 15.7333 16.5414 15.4416C17.0164 15.0833 17.2747 14.6333 17.2747 14.1583C17.2747 13.6833 17.0164 13.2333 16.5497 12.8833C16.183 12.6 15.7247 12.4 15.183 12.275C14.8497 12.2 14.633 11.8666 14.708 11.525C14.783 11.1916 15.1164 10.975 15.458 11.05C16.1747 11.2083 16.7997 11.4916 17.308 11.8833C18.083 12.4666 18.5247 13.2916 18.5247 14.1583C18.5247 15.025 18.0747 15.85 17.2997 16.4416C16.783 16.8416 16.133 17.1333 15.4164 17.275C15.3664 17.2916 15.3247 17.2916 15.283 17.2916Z" fill="#7E92A2"/>
</svg>
