<svg width="20" height="20" viewBox="0 0 20 20" fill="none" xmlns="http://www.w3.org/2000/svg">
<path d="M16.475 11.4583H13.1083C11.4333 11.4583 10.625 10.6833 10.625 9.08329V3.41663C10.625 1.81663 11.4417 1.04163 13.1083 1.04163H16.475C18.15 1.04163 18.9583 1.81663 18.9583 3.41663V9.08329C18.9583 10.6833 18.1417 11.4583 16.475 11.4583ZM13.1083 2.29163C12.05 2.29163 11.875 2.57496 11.875 3.41663V9.08329C11.875 9.92496 12.05 10.2083 13.1083 10.2083H16.475C17.5333 10.2083 17.7083 9.92496 17.7083 9.08329V3.41663C17.7083 2.57496 17.5333 2.29163 16.475 2.29163H13.1083V2.29163Z" fill="#7E92A2"/>
<path d="M16.475 18.4583H13.1083C12.3384 18.4583 11.8662 18.2794 11.5842 18.0095C11.3066 17.7438 11.125 17.3048 11.125 16.5833V15.0833C11.125 14.363 11.308 13.9237 11.5869 13.6574C11.8704 13.3868 12.3432 13.2083 13.1083 13.2083H16.475C17.2449 13.2083 17.7171 13.3871 17.9991 13.657C18.2768 13.9227 18.4583 14.3617 18.4583 15.0833V16.5833C18.4583 17.3035 18.2754 17.7428 17.9964 18.0091C17.713 18.2797 17.2401 18.4583 16.475 18.4583ZM13.1083 13.4583C12.5806 13.4583 12.0756 13.5172 11.7412 13.8516C11.4031 14.1897 11.375 14.6762 11.375 15.0833V16.5833C11.375 16.9903 11.4031 17.4768 11.7412 17.8149C12.0756 18.1493 12.5806 18.2083 13.1083 18.2083H16.475C17.0027 18.2083 17.5077 18.1493 17.8421 17.8149C18.1802 17.4768 18.2083 16.9903 18.2083 16.5833V15.0833C18.2083 14.6762 18.1802 14.1897 17.8421 13.8516C17.5077 13.5172 17.0027 13.4583 16.475 13.4583H13.1083Z" stroke="#7E92A2"/>
<path d="M6.89166 18.9583H3.52499C1.84999 18.9583 1.04166 18.1833 1.04166 16.5833V10.9166C1.04166 9.31663 1.85832 8.54163 3.52499 8.54163H6.89166C8.56666 8.54163 9.37499 9.31663 9.37499 10.9166V16.5833C9.37499 18.1833 8.55832 18.9583 6.89166 18.9583ZM3.52499 9.79163C2.46666 9.79163 2.29166 10.075 2.29166 10.9166V16.5833C2.29166 17.425 2.46666 17.7083 3.52499 17.7083H6.89166C7.94999 17.7083 8.12499 17.425 8.12499 16.5833V10.9166C8.12499 10.075 7.94999 9.79163 6.89166 9.79163H3.52499V9.79163Z" fill="#7E92A2"/>
<path d="M6.89166 7.29163H3.52499C1.84999 7.29163 1.04166 6.51663 1.04166 4.91663V3.41663C1.04166 1.81663 1.85832 1.04163 3.52499 1.04163H6.89166C8.56666 1.04163 9.37499 1.81663 9.37499 3.41663V4.91663C9.37499 6.51663 8.55832 7.29163 6.89166 7.29163ZM3.52499 2.29163C2.46666 2.29163 2.29166 2.57496 2.29166 3.41663V4.91663C2.29166 5.75829 2.46666 6.04163 3.52499 6.04163H6.89166C7.94999 6.04163 8.12499 5.75829 8.12499 4.91663V3.41663C8.12499 2.57496 7.94999 2.29163 6.89166 2.29163H3.52499V2.29163Z" fill="#7E92A2"/>
</svg>
