<svg width="20" height="20" viewBox="0 0 20 20" fill="none" xmlns="http://www.w3.org/2000/svg">
<path d="M13.3333 18.9583H6.66668C2.81668 18.9583 2.10002 17.1666 1.91668 15.425L1.29168 8.74996C1.20002 7.87496 1.17502 6.58329 2.04168 5.61663C2.79168 4.78329 4.03335 4.38329 5.83335 4.38329H14.1667C15.975 4.38329 17.2167 4.79163 17.9583 5.61663C18.825 6.58329 18.8 7.87496 18.7083 8.75829L18.0833 15.4166C17.9 17.1666 17.1833 18.9583 13.3333 18.9583ZM5.83335 5.62496C4.42502 5.62496 3.45835 5.89996 2.96668 6.44996C2.55835 6.89996 2.42502 7.59163 2.53335 8.62496L3.15835 15.3C3.30002 16.6166 3.65835 17.7083 6.66668 17.7083H13.3333C16.3333 17.7083 16.7 16.6166 16.8417 15.2916L17.4667 8.63329C17.575 7.59163 17.4417 6.89996 17.0333 6.44996C16.5417 5.89996 15.575 5.62496 14.1667 5.62496H5.83335Z" fill="#7E92A2"/>
<path d="M13.3333 5.62496C12.9917 5.62496 12.7083 5.34163 12.7083 4.99996V4.33329C12.7083 2.84996 12.7083 2.29163 10.6667 2.29163H9.33335C7.29168 2.29163 7.29168 2.84996 7.29168 4.33329V4.99996C7.29168 5.34163 7.00835 5.62496 6.66668 5.62496C6.32502 5.62496 6.04168 5.34163 6.04168 4.99996V4.33329C6.04168 2.86663 6.04168 1.04163 9.33335 1.04163H10.6667C13.9583 1.04163 13.9583 2.86663 13.9583 4.33329V4.99996C13.9583 5.34163 13.675 5.62496 13.3333 5.62496Z" fill="#7E92A2"/>
<path d="M10 13.9583C7.70835 13.9583 7.70835 12.5416 7.70835 11.6916V10.8333C7.70835 9.65829 7.99168 9.37496 9.16668 9.37496H10.8333C12.0083 9.37496 12.2917 9.65829 12.2917 10.8333V11.6666C12.2917 12.5333 12.2917 13.9583 10 13.9583ZM8.95835 10.625C8.95835 10.6916 8.95835 10.7666 8.95835 10.8333V11.6916C8.95835 12.55 8.95835 12.7083 10 12.7083C11.0417 12.7083 11.0417 12.575 11.0417 11.6833V10.8333C11.0417 10.7666 11.0417 10.6916 11.0417 10.625C10.975 10.625 10.9 10.625 10.8333 10.625H9.16668C9.10002 10.625 9.02502 10.625 8.95835 10.625Z" fill="#7E92A2"/>
<path d="M11.6667 12.3083C11.3583 12.3083 11.0833 12.075 11.05 11.7583C11.0083 11.4166 11.25 11.1 11.5917 11.0583C13.7917 10.7833 15.9 9.94996 17.675 8.65829C17.95 8.44996 18.3417 8.51663 18.55 8.79996C18.75 9.07496 18.6917 9.46663 18.4083 9.67496C16.4583 11.0916 14.1583 12 11.7417 12.3083C11.7167 12.3083 11.6917 12.3083 11.6667 12.3083Z" fill="#7E92A2"/>
<path d="M8.33335 12.3166C8.30835 12.3166 8.28335 12.3166 8.25835 12.3166C5.97502 12.0583 3.75002 11.225 1.82502 9.90829C1.54168 9.71663 1.46668 9.32496 1.65835 9.04163C1.85002 8.75829 2.24168 8.68329 2.52502 8.87496C4.28335 10.075 6.30835 10.8333 8.39168 11.075C8.73335 11.1166 8.98335 11.425 8.94168 11.7666C8.91668 12.0833 8.65002 12.3166 8.33335 12.3166Z" fill="#7E92A2"/>
</svg>
