<svg width="18" height="20" viewBox="0 0 18 20" fill="none" xmlns="http://www.w3.org/2000/svg">
<g clip-path="url(#clip0_494_4260)">
<path d="M10.47 5.40988L12.93 4.19988C13.23 4.04988 13.31 3.65988 13.08 3.41988C12.19 2.43988 11.29 1.61988 10.57 0.999874C10.24 0.719874 9.75003 0.949874 9.75003 1.37988V4.95988C9.75003 5.32988 10.14 5.56988 10.47 5.40988Z" fill="white"/>
<path d="M9.75003 17.7399V19.3899C9.75003 19.6899 10.02 19.9399 10.32 19.8899C13.05 19.4399 15.33 17.6099 16.41 15.1499C16.6 14.7299 16.14 14.3099 15.72 14.5099L10.03 17.2999C9.86003 17.3799 9.75003 17.5499 9.75003 17.7399Z" fill="white"/>
<path d="M8.25003 1.35988C8.25003 0.929876 7.76004 0.699876 7.43004 0.969876C5.07003 2.94988 0.880035 7.11988 0.900035 11.8999C0.900035 15.9199 3.84004 19.2499 7.68004 19.8899C7.98004 19.9399 8.25003 19.6899 8.25003 19.3899V1.35988Z" fill="white"/>
<path d="M10.44 10.4698L15.73 8.24982C16 8.12982 16.13 7.81982 16 7.55982C15.63 6.82982 15.2 6.11982 14.73 5.45982C14.59 5.25982 14.33 5.19982 14.11 5.29982L10.02 7.28982C9.85002 7.36982 9.74002 7.54982 9.74002 7.73982V10.0098C9.75002 10.3598 10.11 10.6098 10.44 10.4698Z" fill="white"/>
<path d="M16.83 12.3099C16.99 12.2299 17.09 12.0799 17.09 11.9099C17.09 11.2699 17.01 10.6399 16.87 10.0199C16.8 9.71984 16.47 9.55984 16.19 9.67984L10.05 12.2999C9.87003 12.3799 9.75003 12.5599 9.75003 12.7599V14.9599C9.75003 15.3299 10.14 15.5699 10.47 15.4099L16.37 12.5399L16.83 12.3099Z" fill="white"/>
</g>
<defs>
<clipPath id="clip0_494_4260">
<rect width="18" height="20" fill="white"/>
</clipPath>
</defs>
</svg>
