<svg width="16" height="17" viewBox="0 0 16 17" fill="none" xmlns="http://www.w3.org/2000/svg">
<path d="M8.01678 16.1083C6.07512 16.1083 4.13345 15.8 2.29178 15.1833C1.59178 14.9416 1.05845 14.45 0.825115 13.8083C0.583448 13.1666 0.666781 12.4583 1.05011 11.825L2.00845 10.2333C2.20845 9.90005 2.39178 9.23335 2.39178 8.84168V6.43335C2.39178 3.33335 4.91678 0.80835 8.01678 0.80835C11.1168 0.80835 13.6418 3.33335 13.6418 6.43335V8.84168C13.6418 9.22505 13.8251 9.90005 14.0251 10.2416L14.9751 11.825C15.3334 12.425 15.4001 13.15 15.1584 13.8083C14.9168 14.4666 14.3918 14.9666 13.7334 15.1833C11.9001 15.8 9.95845 16.1083 8.01678 16.1083ZM8.01678 2.05835C5.60845 2.05835 3.64178 4.01668 3.64178 6.43335V8.84168C3.64178 9.45005 3.39178 10.35 3.08345 10.875L2.12511 12.4666C1.94178 12.775 1.89178 13.1 2.00011 13.375C2.10011 13.6583 2.35011 13.875 2.69178 13.9916C6.17511 15.1583 9.86678 15.1583 13.3501 13.9916C13.6501 13.8916 13.8834 13.6666 13.9918 13.3666C14.1001 13.0666 14.0751 12.7416 13.9084 12.4666L12.9501 10.875C12.6334 10.3333 12.3918 9.44165 12.3918 8.83335V6.43335C12.3918 4.01668 10.4334 2.05835 8.01678 2.05835Z" fill="#7E92A2"/>
</svg>
