<svg width="24" height="24" viewBox="0 0 24 24" fill="none" xmlns="http://www.w3.org/2000/svg">
<path d="M13.47 7.40987L15.93 6.19987C16.23 6.04987 16.31 5.65987 16.08 5.41987C15.19 4.43987 14.29 3.61987 13.57 2.99987C13.24 2.71987 12.75 2.94987 12.75 3.37987V6.95987C12.75 7.32987 13.14 7.56987 13.47 7.40987Z" fill="white"/>
<path d="M12.75 19.7399V21.3899C12.75 21.6899 13.02 21.9399 13.32 21.8899C16.05 21.4399 18.33 19.6099 19.41 17.1499C19.6 16.7299 19.14 16.3099 18.72 16.5099L13.03 19.2999C12.86 19.3799 12.75 19.5499 12.75 19.7399Z" fill="white"/>
<path d="M11.25 3.35988C11.25 2.92988 10.76 2.69988 10.43 2.96988C8.07003 4.94988 3.88003 9.11988 3.90003 13.8999C3.90003 17.9199 6.84004 21.2499 10.68 21.8899C10.98 21.9399 11.25 21.6899 11.25 21.3899V3.35988Z" fill="white"/>
<path d="M13.44 12.4698L18.73 10.2498C19 10.1298 19.13 9.81982 19 9.55982C18.63 8.82982 18.2 8.11982 17.73 7.45982C17.59 7.25982 17.33 7.19982 17.11 7.29982L13.02 9.28982C12.85 9.36982 12.74 9.54982 12.74 9.73982V12.0098C12.75 12.3598 13.11 12.6098 13.44 12.4698Z" fill="white"/>
<path d="M19.83 14.3098C19.99 14.2298 20.09 14.0798 20.09 13.9098C20.09 13.2698 20.01 12.6398 19.87 12.0198C19.8 11.7198 19.47 11.5598 19.19 11.6798L13.05 14.2998C12.87 14.3798 12.75 14.5598 12.75 14.7598V16.9598C12.75 17.3298 13.14 17.5698 13.47 17.4098L19.37 14.5398L19.83 14.3098Z" fill="white"/>
</svg>
