<svg width="16" height="14" viewBox="0 0 16 14" fill="none" xmlns="http://www.w3.org/2000/svg">
<g clip-path="url(#clip0_496_4266)">
<path d="M14.6665 13.0499H7.10817C6.73317 13.0499 6.42484 12.7416 6.42484 12.3666C6.42484 11.9916 6.73317 11.6833 7.10817 11.6833H14.6665C15.0415 11.6833 15.3498 11.9916 15.3498 12.3666C15.3498 12.7499 15.0415 13.0499 14.6665 13.0499Z" fill="white"/>
<path d="M14.6665 7.80832H7.10817C6.73317 7.80832 6.42484 7.49999 6.42484 7.12499C6.42484 6.74999 6.73317 6.44165 7.10817 6.44165H14.6665C15.0415 6.44165 15.3498 6.74999 15.3498 7.12499C15.3498 7.49999 15.0415 7.80832 14.6665 7.80832Z" fill="white"/>
<path d="M14.6665 2.55832H7.10817C6.73317 2.55832 6.42484 2.24999 6.42484 1.87499C6.42484 1.49999 6.73317 1.19165 7.10817 1.19165H14.6665C15.0415 1.19165 15.3498 1.49999 15.3498 1.87499C15.3498 2.24999 15.0415 2.55832 14.6665 2.55832Z" fill="white"/>
<path d="M2.09151 3.69168C1.90817 3.69168 1.73317 3.61668 1.60817 3.49168L0.849841 2.73335C0.583175 2.46668 0.583175 2.03335 0.849841 1.76668C1.11651 1.50002 1.54984 1.50002 1.81651 1.76668L2.09151 2.04168L3.87484 0.25835C4.14151 -0.00831716 4.57484 -0.00831716 4.84151 0.25835C5.10817 0.525016 5.10817 0.95835 4.84151 1.22502L2.57484 3.49168C2.44151 3.61668 2.27484 3.69168 2.09151 3.69168Z" fill="white"/>
<path d="M2.09151 8.94168C1.91651 8.94168 1.74151 8.87502 1.60817 8.74168L0.849841 7.98335C0.583175 7.71668 0.583175 7.28335 0.849841 7.01668C1.11651 6.75002 1.54984 6.75002 1.81651 7.01668L2.09151 7.29168L3.87484 5.50835C4.14151 5.24168 4.57484 5.24168 4.84151 5.50835C5.10817 5.77502 5.10817 6.20835 4.84151 6.47502L2.57484 8.74168C2.44151 8.87502 2.26651 8.94168 2.09151 8.94168Z" fill="white"/>
<path d="M2.09151 13.9417C1.91651 13.9417 1.74151 13.875 1.60817 13.7417L0.849841 12.9834C0.583175 12.7167 0.583175 12.2834 0.849841 12.0167C1.11651 11.75 1.54984 11.75 1.81651 12.0167L2.09151 12.2917L3.87484 10.5083C4.14151 10.2417 4.57484 10.2417 4.84151 10.5083C5.10817 10.775 5.10817 11.2084 4.84151 11.475L2.57484 13.7417C2.44151 13.875 2.26651 13.9417 2.09151 13.9417Z" fill="white"/>
</g>
<defs>
<clipPath id="clip0_496_4266">
<rect width="16" height="14" fill="white"/>
</clipPath>
</defs>
</svg>
